<svg width="512" height="512" viewBox="0 0 512 512" fill="none" xmlns="http://www.w3.org/2000/svg">
<path d="M234.667 85.333H145.067C109.223 85.333 91.3016 85.333 77.6112 92.3086C65.5689 98.4445 55.7781 108.235 49.6422 120.278C42.6666 133.968 42.6666 151.89 42.6666 187.733V366.933C42.6666 402.776 42.6666 420.698 49.6422 434.388C55.7781 446.431 65.5689 456.221 77.6112 462.357C91.3016 469.333 109.223 469.333 145.067 469.333H324.267C360.11 469.333 378.032 469.333 391.722 462.357C403.764 456.221 413.555 446.431 419.691 434.388C426.667 420.698 426.667 402.776 426.667 366.933V277.333M170.666 341.333H206.39C216.826 341.333 222.043 341.333 226.954 340.154C231.307 339.109 235.469 337.385 239.287 335.046C243.593 332.407 247.282 328.717 254.661 321.338L458.667 117.333C476.34 99.6599 476.34 71.0061 458.667 53.333C440.994 35.6599 412.34 35.6598 394.667 53.3329L190.661 257.338C183.282 264.717 179.592 268.407 176.953 272.713C174.614 276.53 172.89 280.692 171.845 285.046C170.666 289.956 170.666 295.174 170.666 305.61V341.333Z" stroke="white" stroke-width="42.6667" stroke-linecap="round" stroke-linejoin="round"/>
</svg>
