<svg width="512" height="513" viewBox="0 0 512 513" fill="none" xmlns="http://www.w3.org/2000/svg">
<g clip-path="url(#clip0_8206_48816)">
<path d="M240 0C204.8 0 171.36 10.24 171.36 10.24L160 13.696V67.552C127.052 73.3907 94.8693 82.9339 64.0643 96L64.0003 128H32.0003V160H64.0003L64.1283 448C64.1283 462.048 65.4083 473.216 68.9283 482.624C72.4803 492.032 78.8803 499.52 86.9443 504C103.04 512.96 122.784 512 149.44 512H330.688C357.344 512 377.088 512.96 393.184 504C401.248 499.52 407.584 492.032 411.104 482.624C414.624 473.216 416 462.048 416 448L415.936 192H383.936L384 448C384 460.032 382.72 467.296 381.184 471.328C380.096 474.208 378.688 475.456 377.664 476C372.128 479.104 358.112 480 330.688 480H149.44C122.016 480 108 479.104 102.432 476C100.71 474.922 99.4278 473.266 98.8163 471.328V471.264C97.3443 467.36 96.1283 460.128 96.1283 448V447.936L96.0003 160H448V128H415.936L416 96C385.177 82.9228 352.972 73.3793 320 67.552V14.4L309.44 10.592C309.44 10.592 280.224 0.032 240 0.032V0ZM240 32C268.48 32 281.28 36.96 288 39.04V62.688C272.081 60.9389 256.079 60.0416 240.064 60C224 60 207.968 61.024 192 62.752V39.264C200.512 37.024 216.704 32 240 32ZM160 192V384H192V192H160ZM224 192V384H256V192H224ZM288 192V384H320V192H288Z" fill="white"/>
</g>
<defs>
<clipPath id="clip0_8206_48816">
<rect width="512" height="512.032" fill="white"/>
</clipPath>
</defs>
</svg>
